<svg
      xmlns="http://www.w3.org/2000/svg"
      fillRule="evenodd"
      strokeLinejoin="round"
      strokeMiterlimit="2"
      clipRule="evenodd"
      viewBox="0 0 798 104"
    >
      <path
        fill="#fff"
        fillRule="nonzero"
        d="M233.703 0v81.199h18.14V0h-18.14zM263.937 0v81.199h18.14V0h-18.14zM467.798 0v14.685h18.14V0h-18.14zM563.682 0v81.199h18.14v-9.761c0-8.466.259-10.021 1.555-11.23.863-.864 1.814-1.468 2.073-1.468.259 0 4.664 5.01 9.847 11.229l9.416 11.23h10.279c9.589 0 10.193-.086 9.07-1.555-.691-.777-7.169-8.552-14.339-17.276l-13.216-15.722 11.661-12.352 11.662-12.267-10.539-.259-10.625-.259-16.758 17.795-.086-19.695V0h-18.14zM399.556.864v16.412h19.004v63.923h19.004V17.276h19.868V.864h-57.876zM709.667 7.774v13.821h-8.638V36.28h8.465l.346 17.018c.259 16.326.345 17.276 2.418 20.99 3.369 6.133 7.861 7.947 18.14 7.602 4.492-.173 8.725-.605 9.33-.95.691-.519 1.036-3.11 1.036-8.034V65.65l-4.751.518c-3.887.519-5.096.346-6.478-.95-1.555-1.468-1.728-2.678-1.728-15.289V36.28h12.957V21.595h-12.957V7.774h-18.14zM113.632 22.114c-1.641.691-3.887 2.159-4.923 3.109l-1.987 1.815v-5.443h-18.14v82.063h18.14V75.67l2.419 2.246c9.07 8.725 29.197 4.492 37.316-7.774 3.974-5.96 5.442-12.093 5.011-20.386-.951-17.363-12.699-29.111-29.025-29.024-3.196.086-7.169.691-8.811 1.382zm12.439 15.894c7.343 3.542 10.366 13.216 6.393 20.645-2.678 5.183-5.702 7.17-11.316 7.688-8.466.691-13.822-3.714-14.944-12.18-.778-5.442.172-9.588 2.85-12.784 4.319-5.183 10.798-6.392 17.017-3.369zM181.442 22.2c-13.216 4.751-21.163 15.981-21.163 29.715 0 14.426 9.07 25.742 23.668 29.716 13.908 3.801 29.543-2.937 35.935-15.463 2.851-5.614 3.023-6.478 3.023-14.253 0-7.688-.259-8.81-2.85-14.08-3.196-6.565-7.602-10.797-14.772-14.253-6.219-3.11-17.276-3.714-23.841-1.382zm16.326 15.808c5.442 2.678 7.861 6.824 7.861 13.821 0 4.924-.346 6.133-2.419 8.897-3.109 4.147-6.478 5.788-11.575 5.788-12.439 0-18.399-15.117-9.934-25.223 4.233-5.011 10.107-6.22 16.067-3.283zM313.433 22.287c-9.07 3.282-16.239 9.933-19.349 18.226-1.469 3.974-1.728 6.22-1.469 12.612.605 12.871 5.529 20.472 16.931 26.087 6.133 3.023 7.084 3.283 13.908 3.196 9.761-.086 15.721-2.332 22.459-8.638 6.997-6.479 9.07-11.316 9.07-21.509 0-10.02-2.159-16.067-8.12-21.941-6.219-6.219-12.525-8.984-21.595-9.329-5.529-.259-8.466.086-11.835 1.296zm17.795 16.326c11.834 8.811 7.083 27.901-6.997 27.901-8.206 0-13.475-5.097-14.253-13.562-.345-4.146-.086-5.701 1.641-8.811 3.888-7.256 13.562-9.934 19.609-5.528zM517.295 22.373c-8.293 2.85-14.167 7.861-18.141 15.635-2.159 4.233-2.418 5.615-2.418 12.957 0 10.107 1.727 15.117 7.256 20.991 2.159 2.332 6.306 5.442 9.156 6.911 4.406 2.246 6.392 2.677 13.389 3.023 10.539.432 16.154-1.469 22.46-7.602 2.418-2.332 4.319-4.664 4.319-5.183 0-.518-3.024-2.332-6.652-3.973l-6.651-3.023-4.06 2.159c-5.097 2.851-10.366 2.937-14.944.259-4.924-2.678-6.997-6.738-6.997-13.303 0-4.578.346-5.701 2.678-8.638 5.356-6.651 13.13-8.033 19.954-3.541l3.283 2.159 6.651-3.11c3.628-1.727 6.651-3.455 6.738-3.8 0-.432-2.073-2.765-4.578-5.27-7.861-7.947-20.3-10.538-31.443-6.651zM654.296 22.027c-10.884 3.974-18.745 12.007-20.991 21.596-1.209 4.924-.604 14.771 1.123 19.349 3.369 8.984 11.575 15.895 22.114 18.659 9.848 2.505 20.904.864 28.852-4.406l4.664-3.109-9.675-9.675-5.182 1.641c-10.107 3.023-19.696.691-22.978-5.701l-1.382-2.505h42.672l-.431-8.12c-.346-6.565-.951-9.157-2.765-12.871-3.023-6.219-9.243-12.007-15.462-14.339-5.788-2.074-15.549-2.419-20.559-.519zm16.326 15.808c1.555.778 3.628 2.764 4.579 4.319l1.814 2.765h-12.612c-9.848 0-12.612-.26-12.612-1.123 0-1.21 3.714-5.011 6.479-6.479 2.678-1.469 9.156-1.209 12.352.518zM761.928 22.805c-9.934 4.664-13.389 13.562-8.984 22.805 2.332 4.751 6.824 8.033 15.808 11.488 3.801 1.469 7.861 3.197 8.984 3.888 4.146 2.677.864 7.256-5.27 7.256-2.764 0-3.973-.605-6.737-3.283l-3.283-3.369-13.821 4.492 1.296 3.023c1.814 4.147 6.046 8.379 11.143 11.057 3.714 1.987 5.356 2.246 12.093 2.246 6.22 0 8.639-.345 12.267-1.987 8.379-3.714 13.043-11.143 12.007-18.917-1.123-8.206-5.27-11.748-19.35-16.672-6.306-2.159-8.292-3.282-9.07-4.924-.864-1.814-.691-2.332 1.037-3.714 2.937-2.419 5.615-2.073 8.292 1.123l2.246 2.678 6.22-1.469c8.206-1.9 8.984-2.418 7.774-5.096-1.814-3.887-6.651-8.638-11.057-10.625-6.133-2.851-15.548-2.851-21.595 0zM467.798 21.595v59.604h18.14V21.595h-18.14z"
      ></path>
      <path
        fill="#1976d2"
        fillRule="nonzero"
        stroke="#fff"
        strokeWidth="2.29"
        d="M27.6 25.422a9385.044 9385.044 0 00-11.549 24.116c-.138.378.298.4 7.149.4h7.31l4.239-9.224c2.338-5.067 4.285-9.224 4.354-9.224.069 0 2.062 4.157 4.446 9.224l4.33 9.224h14.574l-1.214-2.511c-.665-1.356-5.889-12.225-11.618-24.094C43.892 11.442 39.172 1.707 39.103 1.707c-.069 0-5.247 10.668-11.503 23.715z"
      ></path>
      <path
        fill="#1976d2"
        fillRule="nonzero"
        stroke="#fff"
        strokeWidth="2.08"
        d="M27.875 55.739a885.562 885.562 0 00-2.704 5.779c-.046.111 5.339.2 13.909.2 7.7 0 14.001-.066 14.001-.177 0-.089-1.169-2.668-2.589-5.713l-2.613-5.556-8.684-.045-8.685-.066-2.635 5.578zM9.681 62.541c-.161.355-2.04 4.267-4.148 8.735-2.108 4.467-3.987 8.379-4.171 8.735l-.32.6 7.607-.045 7.608-.066 4.193-9.113c2.315-5.023 4.194-9.18 4.194-9.291.023-.089-3.277-.155-7.31-.155h-7.31l-.343.6zM53.608 62.096c.046.111 1.971 4.312 4.285 9.335l4.217 9.18h7.539c4.697 0 7.493-.089 7.447-.222-.023-.111-2.017-4.312-4.423-9.313l-4.354-9.135h-7.401c-4.079 0-7.356.066-7.31.155z"
      ></path>
    </svg>