<svg
      xmlns="http://www.w3.org/2000/svg"
      fillRule="evenodd"
      strokeLinejoin="round"
      strokeMiterlimit="2"
      clipRule="evenodd"
      viewBox="0 0 1000 150"
    >
      <path
        fill="#fff"
        fillRule="nonzero"
        d="M428.895 25.342v81.199h18.14V25.342h-18.14zM459.128 25.342v81.199h18.141V25.342h-18.141zM662.99 25.342v14.685h18.14V25.342h-18.14zM758.873 25.342v81.199h18.141V96.78c0-8.466.259-10.021 1.554-11.23.864-.864 1.814-1.469 2.074-1.469.259 0 4.664 5.011 9.847 11.23l9.416 11.23h10.279c9.589 0 10.193-.087 9.07-1.555-.691-.778-7.169-8.552-14.339-17.277l-13.217-15.721 11.662-12.353 11.662-12.266-10.539-.259-10.625-.259L777.1 64.646l-.086-19.696V25.342h-18.141zM594.748 26.206v16.412h19.004v63.923h19.004V42.618h19.868V26.206h-57.876zM904.859 33.116v13.821h-8.639v14.685h8.466l.345 17.017c.26 16.327.346 17.277 2.419 20.991 3.369 6.133 7.861 7.947 18.14 7.602 4.492-.173 8.725-.605 9.329-.95.692-.519 1.037-3.11 1.037-8.034v-7.256l-4.751.518c-3.887.519-5.096.346-6.479-.95-1.554-1.468-1.727-2.678-1.727-15.289V61.622h12.957V46.937h-12.957V33.116h-18.14zM308.824 47.456c-1.641.691-3.887 2.159-4.924 3.109l-1.986 1.814v-5.442h-18.141V129h18.141v-27.988l2.418 2.246c9.07 8.725 29.197 4.492 37.317-7.774 3.974-5.96 5.442-12.094 5.01-20.386-.95-17.363-12.698-29.111-29.024-29.025-3.196.087-7.17.692-8.811 1.383zm12.439 15.894c7.343 3.541 10.366 13.216 6.392 20.645-2.677 5.183-5.701 7.17-11.316 7.688-8.465.691-13.821-3.714-14.944-12.18-.777-5.442.173-9.588 2.851-12.784 4.319-5.183 10.798-6.393 17.017-3.369zM376.634 47.542c-13.217 4.751-21.164 15.981-21.164 29.715 0 14.426 9.07 25.742 23.669 29.716 13.907 3.8 29.542-2.937 35.935-15.463 2.85-5.615 3.023-6.478 3.023-14.253 0-7.688-.259-8.811-2.85-14.08-3.197-6.565-7.602-10.798-14.772-14.253-6.219-3.11-17.276-3.714-23.841-1.382zM392.96 63.35c5.442 2.678 7.861 6.824 7.861 13.821 0 4.924-.346 6.133-2.419 8.897-3.11 4.147-6.479 5.788-11.575 5.788-12.439 0-18.399-15.117-9.934-25.224 4.233-5.01 10.107-6.219 16.067-3.282zM508.625 47.628c-9.07 3.283-16.24 9.934-19.349 18.227-1.469 3.973-1.728 6.219-1.469 12.612.605 12.871 5.529 20.472 16.931 26.087 6.133 3.023 7.083 3.282 13.908 3.196 9.761-.086 15.721-2.332 22.459-8.638 6.997-6.479 9.07-11.316 9.07-21.509 0-10.02-2.16-16.067-8.12-21.941-6.219-6.22-12.525-8.984-21.595-9.329-5.529-.26-8.466.086-11.835 1.295zm17.795 16.326c11.834 8.811 7.083 27.902-6.997 27.902-8.206 0-13.476-5.097-14.253-13.562-.346-4.146-.086-5.701 1.641-8.811 3.887-7.256 13.562-9.934 19.609-5.529zM712.486 47.715c-8.292 2.85-14.166 7.86-18.14 15.635-2.159 4.233-2.419 5.615-2.419 12.957 0 10.107 1.728 15.117 7.257 20.991 2.159 2.332 6.305 5.442 9.156 6.91 4.405 2.246 6.392 2.678 13.389 3.024 10.539.432 16.154-1.469 22.459-7.602 2.419-2.332 4.32-4.664 4.32-5.183 0-.518-3.024-2.332-6.652-3.973l-6.651-3.024-4.06 2.16c-5.097 2.85-10.366 2.937-14.944.259-4.924-2.678-6.997-6.738-6.997-13.303 0-4.578.345-5.701 2.678-8.638 5.355-6.651 13.13-8.033 19.954-3.542l3.282 2.16 6.652-3.11c3.628-1.727 6.651-3.455 6.738-3.801 0-.432-2.074-2.764-4.579-5.269-7.86-7.947-20.299-10.538-31.443-6.651zM849.488 47.369c-10.884 3.974-18.745 12.007-20.991 21.596-1.209 4.923-.605 14.771 1.123 19.349 3.369 8.984 11.575 15.894 22.114 18.659 9.847 2.505 20.904.863 28.851-4.406l4.665-3.11-9.675-9.674-5.183 1.641c-10.106 3.023-19.695.691-22.977-5.701l-1.382-2.505h42.672l-.432-8.12c-.345-6.565-.95-9.157-2.764-12.871-3.023-6.22-9.243-12.007-15.462-14.34-5.788-2.073-15.549-2.418-20.559-.518zm16.326 15.808c1.555.777 3.628 2.764 4.578 4.319l1.814 2.764h-12.611c-9.848 0-12.612-.259-12.612-1.123 0-1.209 3.714-5.01 6.478-6.478 2.678-1.469 9.157-1.21 12.353.518zM957.12 48.147c-9.934 4.664-13.39 13.562-8.984 22.804 2.332 4.751 6.824 8.034 15.808 11.489 3.801 1.469 7.861 3.196 8.983 3.887 4.147 2.678.864 7.256-5.269 7.256-2.764 0-3.973-.604-6.738-3.282l-3.282-3.369-13.821 4.492 1.296 3.023c1.814 4.147 6.046 8.379 11.143 11.057 3.714 1.987 5.355 2.246 12.093 2.246 6.22 0 8.638-.345 12.266-1.987 8.379-3.714 13.044-11.143 12.008-18.917-1.123-8.207-5.27-11.748-19.35-16.672-6.306-2.16-8.293-3.283-9.07-4.924-.864-1.814-.691-2.332 1.036-3.714 2.937-2.419 5.615-2.073 8.293 1.123l2.246 2.678 6.22-1.469c8.206-1.9 8.983-2.419 7.774-5.096-1.814-3.888-6.651-8.639-11.057-10.625-6.133-2.851-15.549-2.851-21.595 0zM662.99 46.937v59.604h18.14V46.937h-18.14z"
      ></path>
      <path
        fill="#1976d2"
        fillRule="nonzero"
        stroke="#fff"
        strokeWidth="2.29"
        d="M223.792 50.764a8832.568 8832.568 0 00-11.549 24.116c-.138.378.298.4 7.149.4h7.31l4.239-9.224c2.337-5.068 4.285-9.224 4.354-9.224.069 0 2.062 4.156 4.445 9.224l4.331 9.224h14.574l-1.214-2.511c-.665-1.356-5.89-12.225-11.618-24.094-5.729-11.891-10.449-21.626-10.518-21.626-.069 0-5.248 10.668-11.503 23.715z"
      ></path>
      <path
        fill="#1976d2"
        fillRule="nonzero"
        stroke="#fff"
        strokeWidth="2.08"
        d="M224.067 81.081a885.562 885.562 0 00-2.704 5.779c-.046.111 5.339.2 13.909.2 7.699 0 14.001-.066 14.001-.178 0-.089-1.169-2.667-2.589-5.712l-2.613-5.556-8.684-.045-8.685-.067-2.635 5.579zM205.872 87.883c-.16.355-2.039 4.267-4.147 8.735-2.108 4.467-3.987 8.379-4.171 8.735l-.321.6 7.608-.045 7.608-.066 4.193-9.113c2.315-5.023 4.194-9.18 4.194-9.291.023-.089-3.277-.156-7.31-.156h-7.31l-.344.601zM249.8 87.438c.046.111 1.971 4.312 4.285 9.335l4.216 9.18h7.539c4.698 0 7.493-.089 7.448-.223-.023-.111-2.017-4.311-4.423-9.312l-4.354-9.136h-7.401c-4.079 0-7.356.067-7.31.156z"
      ></path>
    </svg>